<?xml version="1.0" encoding="utf-8"?>
<!-- Generator: Adobe Illustrator 22.1.0, SVG Export Plug-In . SVG Version: 6.00 Build 0)  -->
<svg version="1.1" id="Layer_1" xmlns="http://www.w3.org/2000/svg" xmlns:xlink="http://www.w3.org/1999/xlink" x="0px" y="0px"
	 viewBox="0 0 1600 1600" style="enable-background:new 0 0 1600 1600;" xml:space="preserve">
<style type="text/css">
	.st0{fill:#AAAAAA;}
	.st1{fill:#0EA5D5;}
	.st2{fill:#0572B5;}
</style>
<g>
	<path class="st0" d="M784.6,1214.9v-94.8h19.3v78.7h48v16.1H784.6z M905.6,1192.9l18.2,3.1c-2.3,6.7-6.1,11.8-11.1,15.3
		c-5.1,3.5-11.4,5.2-19,5.2c-12,0-20.9-3.9-26.7-11.8c-4.6-6.3-6.8-14.3-6.8-23.9c0-11.5,3-20.5,9-27c6-6.5,13.6-9.7,22.7-9.7
		c10.3,0,18.4,3.4,24.4,10.2c6,6.8,8.8,17.2,8.5,31.3h-45.9c0.1,5.4,1.6,9.7,4.4,12.7c2.8,3,6.3,4.5,10.6,4.5c2.9,0,5.3-0.8,7.2-2.3
		C903.1,1198.9,904.6,1196.3,905.6,1192.9z M906.6,1174.4c-0.1-5.3-1.5-9.3-4.1-12.1c-2.6-2.8-5.8-4.1-9.5-4.1c-4,0-7.3,1.5-9.9,4.4
		c-2.6,2.9-3.9,6.9-3.8,11.9H906.6z M1002.7,1214.9h-18.3v-35.3c0-7.5-0.4-12.3-1.2-14.5c-0.8-2.2-2.1-3.9-3.8-5.1
		c-1.8-1.2-3.9-1.8-6.4-1.8c-3.2,0-6,0.9-8.5,2.6c-2.5,1.7-4.2,4-5.2,6.9c-0.9,2.9-1.4,8.2-1.4,15.9v31.3h-18.3v-69.2h17v10.2
		c6-7.8,13.6-11.7,22.8-11.7c4,0,7.7,0.7,11.1,2.2c3.3,1.5,5.9,3.3,7.6,5.6c1.7,2.3,2.9,4.8,3.6,7.7c0.7,2.9,1,7,1,12.3V1214.9z
		 M1019.6,1219.5l20.9,2.5c0.3,2.4,1.2,4.1,2.4,5c1.7,1.3,4.5,2,8.2,2c4.8,0,8.4-0.7,10.8-2.2c1.6-1,2.8-2.5,3.7-4.6
		c0.6-1.5,0.8-4.3,0.8-8.4v-10.1c-5.5,7.5-12.4,11.2-20.7,11.2c-9.3,0-16.7-3.9-22.1-11.8c-4.3-6.2-6.4-13.9-6.4-23.2
		c0-11.6,2.8-20.5,8.4-26.6c5.6-6.1,12.5-9.2,20.8-9.2c8.6,0,15.6,3.8,21.2,11.3v-9.7h17.1v62.1c0,8.2-0.7,14.3-2,18.3
		s-3.2,7.2-5.7,9.5c-2.4,2.3-5.7,4.1-9.7,5.4c-4.1,1.3-9.2,2-15.4,2c-11.7,0-20.1-2-25-6c-4.9-4-7.4-9.1-7.4-15.3
		C1019.5,1221.1,1019.5,1220.3,1019.6,1219.5z M1036,1178.9c0,7.3,1.4,12.7,4.3,16.1c2.8,3.4,6.4,5.1,10.5,5.1
		c4.5,0,8.3-1.7,11.3-5.2c3.1-3.5,4.6-8.7,4.6-15.5c0-7.2-1.5-12.5-4.4-16c-3-3.5-6.7-5.2-11.2-5.2c-4.4,0-8,1.7-10.9,5.1
		C1037.4,1166.7,1036,1171.9,1036,1178.9z M1148.4,1214.9v-10.4c-2.5,3.7-5.8,6.6-9.9,8.7c-4.1,2.1-8.4,3.2-13,3.2
		c-4.7,0-8.8-1-12.5-3.1c-3.7-2-6.4-4.9-8-8.6c-1.7-3.7-2.5-8.8-2.5-15.3v-43.8h18.3v31.8c0,9.7,0.3,15.7,1,17.9
		c0.7,2.2,1.9,3.9,3.7,5.2c1.8,1.3,4,1.9,6.8,1.9c3.1,0,5.9-0.9,8.4-2.6c2.5-1.7,4.2-3.8,5.1-6.4c0.9-2.5,1.4-8.8,1.4-18.7v-29.2
		h18.3v69.2H1148.4z M1198,1166.8l-16.6-3c1.9-6.7,5.1-11.6,9.6-14.9c4.6-3.2,11.3-4.8,20.3-4.8c8.2,0,14.3,1,18.2,2.9
		c4,1.9,6.8,4.4,8.4,7.4c1.6,3,2.4,8.4,2.4,16.4l-0.2,21.4c0,6.1,0.3,10.6,0.9,13.5c0.6,2.9,1.7,6,3.3,9.3h-18.1
		c-0.5-1.2-1.1-3-1.8-5.4c-0.3-1.1-0.5-1.8-0.7-2.2c-3.1,3-6.5,5.3-10,6.8c-3.6,1.5-7.4,2.3-11.4,2.3c-7.1,0-12.7-1.9-16.8-5.8
		s-6.2-8.8-6.2-14.7c0-3.9,0.9-7.4,2.8-10.5c1.9-3.1,4.5-5.4,7.9-7c3.4-1.6,8.2-3.1,14.6-4.3c8.6-1.6,14.5-3.1,17.8-4.5v-1.8
		c0-3.5-0.9-6-2.6-7.5c-1.7-1.5-5-2.2-9.8-2.2c-3.3,0-5.8,0.6-7.6,1.9C1200.7,1161.3,1199.2,1163.6,1198,1166.8z M1222.6,1181.7
		c-2.3,0.8-6.1,1.7-11.1,2.8c-5.1,1.1-8.4,2.2-10,3.2c-2.4,1.7-3.6,3.8-3.6,6.5c0,2.6,1,4.8,2.9,6.6c1.9,1.9,4.3,2.8,7.3,2.8
		c3.3,0,6.5-1.1,9.5-3.3c2.2-1.7,3.7-3.7,4.4-6.1c0.5-1.6,0.7-4.5,0.7-8.9V1181.7z M1276.5,1145.7v67.1c0,8.8-0.6,15-1.7,18.7
		c-1.2,3.6-3.4,6.5-6.6,8.5c-3.3,2-7.5,3.1-12.5,3.1c-1.8,0-3.8-0.2-5.9-0.5c-2.1-0.3-4.4-0.8-6.8-1.5l3.2-15.6
		c0.9,0.2,1.7,0.3,2.4,0.4c0.8,0.1,1.5,0.2,2.1,0.2c1.9,0,3.4-0.4,4.6-1.2c1.2-0.8,2-1.8,2.4-2.9c0.4-1.1,0.6-4.5,0.6-10.2v-66
		H1276.5z M1258.2,1136.3v-16.9h18.3v16.9H1258.2z M1335.8,1192.9l18.2,3.1c-2.3,6.7-6.1,11.8-11.1,15.3c-5.1,3.5-11.4,5.2-19,5.2
		c-12,0-20.9-3.9-26.7-11.8c-4.6-6.3-6.8-14.3-6.8-23.9c0-11.5,3-20.5,9-27c6-6.5,13.6-9.7,22.7-9.7c10.3,0,18.4,3.4,24.4,10.2
		c6,6.8,8.8,17.2,8.5,31.3h-45.9c0.1,5.4,1.6,9.7,4.4,12.7c2.8,3,6.3,4.5,10.6,4.5c2.9,0,5.3-0.8,7.2-2.3
		C1333.3,1198.9,1334.8,1196.3,1335.8,1192.9z M1336.8,1174.4c-0.1-5.3-1.5-9.3-4.1-12.1c-2.6-2.8-5.8-4.1-9.5-4.1
		c-4,0-7.3,1.5-9.9,4.4c-2.6,2.9-3.9,6.9-3.8,11.9H1336.8z"/>
	<path d="M784.4,1426.1v-184.3h37.5v153h93.3v31.3H784.4z M968.3,1332.6l-32.3-5.8c3.6-13,9.9-22.6,18.8-28.9
		c8.9-6.3,22.1-9.4,39.5-9.4c15.9,0,27.7,1.9,35.5,5.6c7.8,3.8,13.2,8.5,16.4,14.3c3.2,5.8,4.8,16.4,4.8,31.9l-0.4,41.6
		c0,11.8,0.6,20.6,1.7,26.2c1.1,5.6,3.3,11.6,6.4,18.1h-35.2c-0.9-2.4-2.1-5.9-3.4-10.5c-0.6-2.1-1-3.5-1.3-4.2
		c-6.1,5.9-12.6,10.3-19.5,13.3c-6.9,3-14.3,4.4-22.2,4.4c-13.9,0-24.8-3.8-32.8-11.3c-8-7.5-12-17-12-28.5c0-7.6,1.8-14.4,5.4-20.3
		c3.6-6,8.7-10.5,15.3-13.7c6.5-3.2,16-5.9,28.3-8.3c16.6-3.1,28.2-6,34.6-8.7v-3.5c0-6.8-1.7-11.7-5.1-14.6
		c-3.4-2.9-9.8-4.4-19.1-4.4c-6.3,0-11.3,1.2-14.8,3.7C973.4,1322,970.5,1326.3,968.3,1332.6z M1015.9,1361.5
		c-4.6,1.5-11.8,3.3-21.7,5.4c-9.9,2.1-16.3,4.2-19.4,6.2c-4.6,3.3-7,7.5-7,12.5c0,5,1.9,9.3,5.6,12.9c3.7,3.6,8.4,5.4,14.2,5.4
		c6.4,0,12.5-2.1,18.4-6.3c4.3-3.2,7.1-7.1,8.5-11.8c0.9-3,1.4-8.8,1.4-17.4V1361.5z M1147.7,1291.5v28.4h-24.3v54.2
		c0,11,0.2,17.4,0.7,19.2c0.5,1.8,1.5,3.3,3.2,4.5c1.6,1.2,3.7,1.8,6,1.8c3.3,0,8.1-1.1,14.3-3.4l3,27.6c-8.3,3.5-17.7,5.3-28.1,5.3
		c-6.4,0-12.2-1.1-17.4-3.2c-5.2-2.2-8.9-4.9-11.3-8.4c-2.4-3.4-4.1-8-5-13.9c-0.8-4.1-1.1-12.5-1.1-25.1v-58.7h-16.3v-28.4h16.3
		v-26.7l35.7-20.8v47.5H1147.7z M1172.4,1273.3v-32.9h35.6v32.9H1172.4z M1172.4,1426.1v-134.6h35.6v134.6H1172.4z M1367,1426.1
		h-35.6v-68.7c0-14.5-0.8-23.9-2.3-28.2c-1.5-4.3-4-7.6-7.4-9.9c-3.4-2.4-7.5-3.5-12.4-3.5c-6.2,0-11.7,1.7-16.6,5.1
		c-4.9,3.4-8.3,7.9-10.1,13.4c-1.8,5.6-2.7,15.9-2.7,30.9v61h-35.6v-134.6h33.1v19.8c11.7-15.2,26.5-22.8,44.4-22.8
		c7.9,0,15,1.4,21.5,4.2c6.5,2.8,11.4,6.4,14.8,10.8c3.3,4.4,5.7,9.4,7,15c1.3,5.6,2,13.6,2,24V1426.1z M1394.8,1356.9
		c0-11.8,2.9-23.3,8.7-34.3c5.8-11.1,14.1-19.5,24.8-25.3c10.7-5.8,22.6-8.7,35.8-8.7c20.4,0,37,6.6,50.1,19.8
		c13,13.2,19.5,29.9,19.5,50.1c0,20.4-6.6,37.2-19.7,50.6c-13.1,13.4-29.7,20.1-49.6,20.1c-12.3,0-24.1-2.8-35.3-8.4
		c-11.2-5.6-19.7-13.8-25.5-24.5C1397.8,1385.5,1394.8,1372.4,1394.8,1356.9z M1431.3,1358.8c0,13.3,3.2,23.6,9.5,30.7
		s14.1,10.6,23.4,10.6c9.3,0,17.1-3.5,23.4-10.6c6.3-7.1,9.4-17.4,9.4-30.9c0-13.2-3.1-23.3-9.4-30.4c-6.3-7.1-14.1-10.6-23.4-10.6
		c-9.3,0-17.1,3.5-23.4,10.6S1431.3,1345.5,1431.3,1358.8z"/>
</g>
<g>
	<path class="st1" d="M1540.5,138.8c-366.3,198.2-351.9,203-366.3,178.3C1163.9,277.4,1148.8,297.3,1540.5,138.8z M450.5,946.2
		c98.8-84.4,227.7-74.1,218.1-124.2C569.9,861.8,519.8,852.2,450.5,946.2z M346.9,911.2c124.2-84.4,301.8-59.7,287.4-129
		C505.4,822.7,430.6,817.2,346.9,911.2z M233.1,857c124.2-84.4,371.8-39.8,376.6-124.2C436.1,787.7,351.7,752.7,233.1,857z
		 M124,797.3c124.2-84.4,455.5-24.7,480.2-133.8C430.6,718.4,242.7,688.9,124,797.3z M59.5,718.4c123.5-84.4,535-10.3,554.9-118.7
		C445.7,649.1,178.2,609.4,59.5,718.4z M376.4,564.8c124.2-39.8,242.8,24.7,247.6-24.7C519.8,529.8,475.2,500.3,376.4,564.8z
		 M272.2,485.9c148.8-24.7,321.7,69.3,336.8,0C470.4,466,391.5,431,272.2,485.9z M188.5,341.8c153.7-4.8,361.5,178.3,391,94
		C401.1,411.1,341.4,292.5,188.5,341.8z M153.5,247.9c193.4,9.6,371.8,222.9,435.6,133.8C416.2,321.9,331.8,223.2,153.5,247.9z
		 M148.7,109.3c212.6,44.6,371.8,292.2,485.6,238C499.9,277.4,336.6,104.5,148.7,109.3z M683.7,995.5
		c-69.3-74.1,64.5-168.7,84.4-104.3c9.6,35-74.1,74.1-44.6,19.9c0-19.9-59.7,15.1-24.7,44.6c44.6,35,124.2-44.6,94-84.4
		c-69.3-89.2-218.1,79.6-113.9,158.5C753,1084,797.6,925.6,991,836.4c257.2-133.8,168.7-332,168.7-332c-29.5-74.1-29.5-35-124.2,0
		c-104.3,35-158.5,158.5-94,218.1c69.3,54.2,207.8-124.2,89.2-138.6c-24.7,15.1,44.6,24.7,4.8,74.1c-74.1,84.4-143.4-49.4-9.6-109.1
		c79.6-29.5,89.2-59.7,98.8-35c64.5,153.7-158.5,327.2-198.2,222.9c-9.6-24.7-163.3,89.2-124.2,94
		C911.5,852.2,733.1,1040.1,683.7,995.5z"/>
	<path class="st2" d="M1163.9,287.7c-94-79.6-297,19.9-218.1,207.8c193.4,24.7,232.5-148.8,232.5-148.8
		C1144,312.3,1163.9,287.7,1163.9,287.7z M1025.3,366.5c-4.8-24.7,39.8-69.3,69.3-54.2C1114.5,352.1,1045.2,386.4,1025.3,366.5z
		 M1079.5,326.8c9.6,15.1-15.1,29.5-24.7,19.9C1050,337,1069.9,317.1,1079.5,326.8z M643.9,990.7c-39.8,29.5-79.6,124.2-158.5,129
		C574.7,1079.9,609,941.4,643.9,990.7z M653.6,1020.2c-29.5,29.5-79.6,178.3-178.3,207.8C579.5,1159.5,624.1,970.8,653.6,1020.2z
		 M673.4,1044.9c-39.8,35-54.2,218.1-143.4,277.1C619.3,1193.8,628.9,1000.3,673.4,1044.9z M693.3,1055.2
		c-19.9,44.6-9.6,232.5-98.8,361.5C678.2,1198.6,633.7,1025.7,693.3,1055.2z M718,1055.2c4.8,59.7,19.9,327.2-24.7,435.6
		C737.9,1298,648.8,1060,718,1055.2z M639.1,738.3c74.1,247.6,267.5-98.8,292.2-227.7C702.9,644.3,594.6,505.1,639.1,738.3z
		 M718,693.7c-24.7-113.9,39.8-49.4,158.5-113.9C862.1,638.9,757.8,817.2,718,693.7z M609,401.5c-39.8,69.3,44.6,79.6,49.4,148.8
		c113.9,0,153.7-4.8,272.3-54.2C673.4,446.1,693.3,277.4,609,401.5z M698.1,520.2c-9.6-35-44.6-44.6-24.7-69.3
		c39.8-54.2,35,29.5,168.7,49.4C782.5,520.2,757.8,520.2,698.1,520.2z"/>
</g>
</svg>
